<?xml version="1.0" standalone="no"?>
<svg class="parallel-coordinate-plot radar-plot" height="800" width="1020" xmlns="http://www.w3.org/2000/svg" style="overflow: visible; margin-top: 20px;"><g><rect class="padding" height="640" width="860" fill="transparent"></rect></g><g transform="translate(80, 80)" class="plot" style="font-family: Rajdhani, sans-serif;"><circle r="240" cx="240" cy="240" fill="white" stroke="black"></circle><g><polygon class="axis" points="480,240 452.50944615677037,351.53356129050445 376.3355392154774,437.5161278144775 268.92880326127755,478.25012978353294 154.8948271097915,464.4038982444996 60.35742043893579,399.1494379777909 6.973963817747544,297.4357594290139 6.9739638177474905,182.56424057098621 60.35742043893569,80.8505620222092 154.89482710979138,15.596101755500467 268.9288032612773,1.74987021646702 376.33553921547735,42.48387218552242 452.5094461567703,128.46643870949538" fill="transparent" stroke="#000"></polygon><text class="var-label" x="495" y="240" fill="#000">tz<title>tz</title></text><text class="var-label" x="467.50944615677037" y="351.53356129050445" fill="#000">electric_power<title>electric_power</title></text><text class="var-label" x="391.3355392154774" y="437.5161278144775" fill="#000">Date<title>Date</title></text><text class="var-label" x="283.92880326127755" y="478.25012978353294" fill="#000">Time<title>Time</title></text><text class="var-label" x="139.8948271097915" y="464.4038982444996" fill="#000" style="text-anchor: end;">Year<title>Year</title></text><text class="var-label" x="45.35742043893579" y="399.1494379777909" fill="#000" style="text-anchor: end;">Month<title>Month</title></text><text class="var-label" x="-8.026036182252456" y="297.4357594290139" fill="#000" style="text-anchor: end;">day<title>day</title></text><text class="var-label" x="-8.02603618225251" y="182.56424057098621" fill="#000" style="text-anchor: end;">hours<title>hours</title></text><text class="var-label" x="45.35742043893569" y="80.8505620222092" fill="#000" style="text-anchor: end;">minutes<title>minutes</title></text><text class="var-label" x="139.89482710979138" y="15.596101755500467" fill="#000" style="text-anchor: end;">Weekday_Name<title>Weekday_Name</title></text><text class="var-label" x="283.9288032612773" y="1.74987021646702" fill="#000">Day_of_Week<title>Day_of_Week</title></text><text class="var-label" x="391.33553921547735" y="42.48387218552242" fill="#000">weekend<title>weekend</title></text><text class="var-label" x="467.5094461567703" y="128.46643870949538" fill="#000">members_count<title>members_count</title></text></g><g class="line-group"><path class="line" fill="none" stroke="#234099" d="M240,240L271.87641692351554,256.73003419357565L240,240L240,240L154.91590840106971,464.3483114478079L240,240L240,240L240,240L63.302380759608866,83.45956920217299L240,240L268.92880326127755,1.749870216467059L376.3355392154772,42.48387218552233L288.8771726160572,214.347280903184L240,240" style="opacity: 0.2;"></path><path class="line" fill="none" stroke="#234099" d="M242.4,240L246.37528338470312,243.34600683871514L240,240L241.1571521304511,249.53000519134133L154.91590840106971,464.3483114478079L240,240L240,240L128.1475026325188,212.43083547407338L63.302380759608866,83.45956920217299L240,240L268.92880326127755,1.749870216467059L376.3355392154772,42.48387218552233L295.25245600076033,211.00127406446884L242.4,240" style="opacity: 0.2;"></path><path class="line" fill="none" stroke="#234099" d="M247.2,240L271.87641692351554,256.73003419357565L240,240L242.60359229351496,261.44251168051795L154.91590840106971,464.3483114478079L240,240L240,240L16.295005265037616,184.86167094814675L63.302380759608866,83.45956920217299L240,240L268.92880326127755,1.749870216467059L376.3355392154772,42.48387218552233L263.37603907724474,227.73130825804452L247.2,240" style="opacity: 0.2;"></path><path class="line" fill="none" stroke="#234099" d="M249.6,240L267.62622800038014,254.4993629677656L244.09006617646432,245.92548383443432L240,240L154.91590840106971,464.3483114478079L240,240L233.00921891453243,241.72307278287042L240,240L63.302380759608866,83.45956920217299L225.53212060866454,201.85133729843508L240,240L240,240L295.25245600076033,211.00127406446884L249.6,240" style="opacity: 0.2;"></path><path class="line" fill="none" stroke="#234099" d="M252,240L295.2524560007603,268.9987259355312L244.09006617646432,245.92548383443432L241.1571521304511,249.53000519134133L154.91590840106971,464.3483114478079L240,240L233.00921891453243,241.72307278287042L128.1475026325188,212.43083547407338L63.302380759608866,83.45956920217299L225.53212060866454,201.85133729843508L240,240L240,240L293.1273615391926,212.1166096773739L252,240" style="opacity: 0.2;"></path><path class="line" fill="none" stroke="#234099" d="M254.4,240L271.87641692351554,256.73003419357565L244.09006617646432,245.92548383443432L242.60359229351496,261.44251168051795L154.91590840106971,464.3483114478079L240,240L233.00921891453243,241.72307278287042L16.295005265037616,184.86167094814675L63.302380759608866,83.45956920217299L225.53212060866454,201.85133729843508L240,240L240,240L286.7520781544895,215.46261651608904L254.4,240" style="opacity: 0.2;"></path><path class="line" fill="none" stroke="#E3E01E" d="M259.2,240L403.6322735407132,325.8808421936884L246.81677696077386,249.87580639072388L243.7607444239661,270.9725168718593L154.91590840106971,464.3483114478079L240,240L223.68817746724233,244.02050316003096L209.70661529630718,232.5333512742282L63.302380759608866,83.45956920217299L211.91529294623115,165.94671357931514L244.91789655441718,199.49747793679938L240,240L297.37755046232803,209.88593845156382L259.2,240" style="opacity: 0.2;"></path><path class="line" fill="none" stroke="#E3E01E" d="M261.6,240L420.63302923325483,334.80352709692875L246.81677696077386,249.87580639072388L244.91789655441718,280.5025220632006L154.91590840106971,464.3483114478079L240,240L223.68817746724233,244.02050316003096L97.85411792882596,204.9641867483016L63.302380759608866,83.45956920217299L211.91529294623115,165.94671357931514L244.91789655441718,199.49747793679938L240,240L308.0030227701665,204.3092603870386L261.6,240" style="opacity: 0.2;"></path><path class="line" fill="none" stroke="#234099" d="M264,240L271.87641692351554,256.73003419357565L250.90684313723818,255.8012902251582L240,240L154.91590840106971,464.3483114478079L240,240L209.70661529630718,247.4666487257718L240,240L63.302380759608866,83.45956920217299L197.4474135548957,127.79805087775023L254.46440163063878,120.87493510823353L240,240L299.50264492389573,208.77060283865876L264,240" style="opacity: 0.2;"></path><path class="line" fill="none" stroke="#E3E01E" d="M268.8,240L335.62925077054666,290.190102580727L250.90684313723818,255.8012902251582L246.36433671748105,292.41502855237724L154.91590840106971,464.3483114478079L240,240L209.70661529630718,247.4666487257718L67.56073322513316,197.4975380225298L63.302380759608866,83.45956920217299L197.4474135548957,127.79805087775023L254.46440163063878,120.87493510823353L240,240L352.6300064630883,180.88721251603266L268.8,240" style="opacity: 0.2;"></path><path class="line" fill="none" stroke="#E3E01E" d="M271.2,240L416.3828403101194,332.5728558711187L253.63355392154773,259.75161278144776L243.7607444239661,270.9725168718593L154.91590840106971,464.3483114478079L240,240L200.38557384901708,249.76407910293236L209.70661529630718,232.5333512742282L63.302380759608866,83.45956920217299L182.97953416356023,89.64938817618531L259.38229818505596,80.37241304503291L240,240L282.5018892313541,217.69328774189913L271.2,240" style="opacity: 0.2;"></path><path class="line" fill="none" stroke="#ff4d00" d="M273.6,240L452.50944615677037,351.53356129050445L257.7236200980121,265.6770966158821L247.52148884793215,301.94503374371857L154.91590840106971,464.3483114478079L240,240L153.78036661256658,261.25123098873513L118.82646118522868,210.13340509691284L63.302380759608866,83.45956920217299L197.4474135548957,127.79805087775023L254.46440163063878,120.87493510823353L240,240L303.7528338470311,206.53993161284868L273.6,240" style="opacity: 1;"></path><path class="line" fill="none" stroke="#234099" d="M276,240L316.5034006164373,280.1520820645816L260.4503308823216,269.62741917217164L240,240L154.91590840106971,464.3483114478079L240,240L139.79880444163143,264.69737655447597L240,240L63.302380759608866,83.45956920217299L169.36270650112687,53.7447644570654L264.0109067068604,42.252392279667646L376.3355392154772,42.48387218552233L293.1273615391926,212.1166096773739L276,240" style="opacity: 0.2;"></path><path class="line" fill="none" stroke="#234099" d="M280.8,240L295.2524560007603,268.9987259355312L260.4503308823216,269.62741917217164L241.1571521304511,249.53000519134133L154.91590840106971,464.3483114478079L240,240L139.79880444163143,264.69737655447597L128.1475026325188,212.43083547407338L63.302380759608866,83.45956920217299L169.36270650112687,53.7447644570654L264.0109067068604,42.252392279667646L376.3355392154772,42.48387218552233L359.00528984779146,177.54120567731752L280.8,240" style="opacity: 0.2;"></path><path class="line" fill="none" stroke="#234099" d="M283.2,240L271.87641692351554,256.73003419357565L264.5403970587859,275.55290300660596L248.67864097838327,311.4750389350599L154.91590840106971,464.3483114478079L240,240L130.47776299434133,266.9948069316365L27.946307074150212,187.73345891959744L63.302380759608866,83.45956920217299L240,240L268.92880326127755,1.749870216467059L376.3355392154772,42.48387218552233L297.37755046232803,209.88593845156382L283.2,240" style="opacity: 0.2;"></path><path class="line" fill="none" stroke="#234099" d="M285.6,240L271.87641692351554,256.73003419357565L268.63046323525026,281.4783868410403L250.12508114144714,323.3875454242365L154.91590840106971,464.3483114478079L240,240L123.48698190887376,268.7178797145069L230.6789585527099,237.70256962283946L63.302380759608866,83.45956920217299L225.53212060866454,201.85133729843508L240,240L240,240L297.37755046232803,209.88593845156382L285.6,240" style="opacity: 0.2;"></path><path class="line" fill="none" stroke="#E3E01E" d="M290.4,240L422.75812369482253,335.91886270983383L268.63046323525026,281.4783868410403L251.28223327189824,332.91755061557785L154.91590840106971,464.3483114478079L240,240L123.48698190887376,268.7178797145069L170.09218914532426,222.76927217129585L63.302380759608866,83.45956920217299L225.53212060866454,201.85133729843508L240,240L240,240L297.37755046232803,209.88593845156382L290.4,240" style="opacity: 0.2;"></path><path class="line" fill="none" stroke="#E3E01E" d="M292.8,240L350.5049120015206,297.9974518710623L268.63046323525026,281.4783868410403L246.36433671748105,292.41502855237724L154.91590840106971,464.3483114478079L240,240L123.48698190887376,268.7178797145069L67.56073322513316,197.4975380225298L63.302380759608866,83.45956920217299L225.53212060866454,201.85133729843508L240,240L240,240L327.12887292427587,194.2712398708932L292.8,240" style="opacity: 0.2;"></path><path class="line" fill="none" stroke="#E3E01E" d="M295.2,240L335.62925077054666,290.190102580727L271.3571740195598,285.42870939732984L240,240L154.91590840106971,464.3483114478079L150.17871021946786,319.5747189888954L200.38557384901708,249.76407910293236L240,240L63.302380759608866,83.45956920217299L154.89482710979138,15.596101755500456L249.5465050762216,161.37745717143412L240,240L393.00680123287464,159.69583587083685L295.2,240" style="opacity: 0.2;"></path><path class="line" fill="none" stroke="#E3E01E" d="M297.6,240L369.6307621556299,308.03547238720773L275.44724019602415,291.35419323176416L252.43938540234933,342.4475558069192L154.91590840106971,464.3483114478079L240,240L100.18437829064851,274.4614556574083L179.41323059261435,225.06670254845642L63.302380759608866,83.45956920217299L197.4474135548957,127.79805087775023L254.46440163063878,120.87493510823353L240,240L369.63076215562995,171.96452761279232L297.6,240" style="opacity: 0.2;"></path><path class="line" fill="none" stroke="#E3E01E" d="M302.4,240L418.50793477168713,333.6881914840237L275.44724019602415,291.35419323176416L241.1571521304511,249.53000519134133L154.91590840106971,464.3483114478079L240,240L100.18437829064851,274.4614556574083L128.1475026325188,212.43083547407338L63.302380759608866,83.45956920217299L197.4474135548957,127.79805087775023L254.46440163063878,120.87493510823353L240,240L352.6300064630883,180.88721251603266L302.4,240" style="opacity: 0.2;"></path><path class="line" fill="none" stroke="#234099" d="M304.8,240L274.0015113850833,257.84536980648073L278.1739509803337,295.3045157880537L248.67864097838327,311.4750389350599L154.91590840106971,464.3483114478079L240,240L107.17515937611611,272.7383828745379L27.946307074150212,187.73345891959744L63.302380759608866,83.45956920217299L154.89482710979138,15.596101755500456L249.5465050762216,161.37745717143412L240,240L390.881706771307,160.81117148374187L304.8,240" style="opacity: 0.2;"></path><path class="line" fill="none" stroke="#E3E01E" d="M307.2,240L395.1318956944424,321.41949974206824L282.264017156798,301.22999962248804L253.8858255654132,354.3600622960958L154.91590840106971,464.3483114478079L150.17871021946786,319.5747189888954L193.3947927635495,251.48715188580277L149.11984588892153,217.60005382268463L63.302380759608866,83.45956920217299L197.4474135548957,127.79805087775023L254.46440163063878,120.87493510823353L240,240L371.75585661719765,170.84919199988727L307.2,240" style="opacity: 0.2;"></path><path class="line" fill="none" stroke="#234099" d="M309.6,240L276.126605846651,258.96070541938576L275.44724019602415,291.35419323176416L250.12508114144714,323.3875454242365L154.91590840106971,464.3483114478079L240,240L100.18437829064851,274.4614556574083L230.6789585527099,237.70256962283946L63.302380759608866,83.45956920217299L197.4474135548957,127.79805087775023L254.46440163063878,120.87493510823353L240,240L356.8801953862237,178.65654129022258L309.6,240" style="opacity: 0.2;"></path><path class="line" fill="none" stroke="#E3E01E" d="M314.4,240L373.8809510787653,310.2661436130178L271.3571740195598,285.42870939732984L244.91789655441718,280.5025220632006L154.91590840106971,464.3483114478079L150.17871021946786,319.5747189888954L200.38557384901708,249.76407910293236L97.85411792882596,204.9641867483016L63.302380759608866,83.45956920217299L154.89482710979138,15.596101755500456L249.5465050762216,161.37745717143412L240,240L452.5094461567704,128.4664387094956L314.4,240" style="opacity: 0.2;"></path><path class="line" fill="none" stroke="#E3E01E" d="M316.8,240L418.50793477168713,333.6881914840237L282.264017156798,301.22999962248804L255.04297769586432,363.89006748743714L154.91590840106971,464.3483114478079L150.17871021946786,319.5747189888954L193.3947927635495,251.48715188580277L46.58838996873044,192.32831967391854L63.302380759608866,83.45956920217299L197.4474135548957,127.79805087775023L254.46440163063878,120.87493510823353L240,240L254.87566123097392,232.1926507096647L316.8,240" style="opacity: 0.2;"></path><path class="line" fill="none" stroke="#234099" d="M319.2,240L284.6269836929218,263.42204787100593L284.99072794110754,305.1803221787776L240,240L154.91590840106971,464.3483114478079L150.17871021946786,319.5747189888954L177.08297023079183,255.50765504583373L240,240L63.302380759608866,83.45956920217299L169.36270650112687,53.7447644570654L264.0109067068604,42.252392279667646L376.3355392154772,42.48387218552233L339.8794396936821,187.57922619346294L319.2,240" style="opacity: 0.2;"></path><path class="line" fill="none" stroke="#234099" d="M324,240L269.75132246194784,255.61469858067062L284.99072794110754,305.1803221787776L256.48941785892816,375.80257397661376L154.91590840106971,464.3483114478079L150.17871021946786,319.5747189888954L177.08297023079183,255.50765504583373L158.44088733621163,219.89748419984517L63.302380759608866,83.45956920217299L169.36270650112687,53.7447644570654L264.0109067068604,42.252392279667646L376.3355392154772,42.48387218552233L407.88246246384864,151.8884865805015L324,240" style="opacity: 0.2;"></path><path class="line" fill="none" stroke="#234099" d="M326.4,240L263.37603907724474,252.26869174195548L284.99072794110754,305.1803221787776L246.36433671748105,292.41502855237724L154.91590840106971,464.3483114478079L150.17871021946786,319.5747189888954L177.08297023079183,255.50765504583373L67.56073322513316,197.4975380225298L63.302380759608866,83.45956920217299L169.36270650112687,53.7447644570654L264.0109067068604,42.252392279667646L376.3355392154772,42.48387218552233L352.6300064630883,180.88721251603266L326.4,240" style="opacity: 0.2;"></path><path class="line" fill="none" stroke="#234099" d="M328.8,240L284.6269836929218,263.42204787100593L289.0807941175719,311.1058060132119L250.12508114144714,323.3875454242365L154.91590840106971,464.3483114478079L150.17871021946786,319.5747189888954L163.10140805985668,258.9538006115746L230.6789585527099,237.70256962283946L63.302380759608866,83.45956920217299L225.53212060866454,201.85133729843508L240,240L240,240L350.5049120015206,182.0025481289377L328.8,240" style="opacity: 0.2;"></path><path class="line" fill="none" stroke="#E3E01E" d="M331.2,240L395.1318956944424,321.41949974206824L289.0807941175719,311.1058060132119L251.28223327189824,332.91755061557785L154.91590840106971,464.3483114478079L150.17871021946786,319.5747189888954L163.10140805985668,258.9538006115746L170.09218914532426,222.76927217129585L63.302380759608866,83.45956920217299L225.53212060866454,201.85133729843508L240,240L240,240L378.1311400019008,167.50318516117215L331.2,240" style="opacity: 0.2;"></path><path class="line" fill="none" stroke="#E3E01E" d="M336,240L399.3820846175778,323.65017096787835L289.0807941175719,311.1058060132119L257.64656998937926,385.33257916795515L154.91590840106971,464.3483114478079L150.17871021946786,319.5747189888954L163.10140805985668,258.9538006115746L107.17515937611608,207.26161712546215L63.302380759608866,83.45956920217299L225.53212060866454,201.85133729843508L240,240L240,240L378.1311400019008,167.50318516117215L336,240" style="opacity: 0.2;"></path><path class="line" fill="none" stroke="#E3E01E" d="M338.4,240L429.1334070795256,339.264869548549L289.0807941175719,311.1058060132119L255.04297769586432,363.89006748743714L154.91590840106971,464.3483114478079L150.17871021946786,319.5747189888954L163.10140805985668,258.9538006115746L46.58838996873044,192.32831967391854L63.302380759608866,83.45956920217299L225.53212060866454,201.85133729843508L240,240L240,240L263.37603907724474,227.73130825804452L338.4,240" style="opacity: 0.2;"></path><path class="line" fill="none" stroke="#234099" d="M340.8,240L286.7520781544895,264.53738348391096L291.80750490188143,315.0561285695015L248.67864097838327,311.4750389350599L154.91590840106971,464.3483114478079L150.17871021946786,319.5747189888954L146.789585527099,262.97430377160555L27.946307074150212,187.73345891959744L63.302380759608866,83.45956920217299L154.89482710979138,15.596101755500456L249.5465050762216,161.37745717143412L240,240L365.38057323249456,174.1951988386024L340.8,240" style="opacity: 0.2;"></path><path class="line" fill="none" stroke="#E3E01E" d="M345.6,240L342.00453415524976,293.53610941944214L275.44724019602415,291.35419323176416L258.8037221198304,394.8625843592964L154.91590840106971,464.3483114478079L240,240L100.18437829064851,274.4614556574083L76.88177467242323,199.79496839969033L63.302380759608866,83.45956920217299L197.4474135548957,127.79805087775023L254.46440163063878,120.87493510823353L240,240L371.75585661719765,170.84919199988727L345.6,240" style="opacity: 0.2;"></path><path class="line" fill="none" stroke="#E3E01E" d="M348,240L401.5071790791455,324.7655065807834L295.8975710783457,320.9816124039358L243.7607444239661,270.9725168718593L154.91590840106971,464.3483114478079L240,240L93.19359720518094,276.1845284402787L209.70661529630718,232.5333512742282L63.302380759608866,83.45956920217299L182.97953416356023,89.64938817618531L259.38229818505596,80.37241304503291L240,240L293.1273615391926,212.1166096773739L348,240" style="opacity: 0.2;"></path><path class="line" fill="none" stroke="#E3E01E" d="M350.4,240L339.87943969368206,292.4207738065371L299.98763725481007,326.9070962383701L242.60359229351496,261.44251168051795L154.91590840106971,464.3483114478079L240,240L37.26734852144034,289.96911070324205L16.295005265037616,184.86167094814675L63.302380759608866,83.45956920217299L182.97953416356023,89.64938817618531L259.38229818505596,80.37241304503291L240,240L284.6269836929218,216.57795212899407L350.4,240" style="opacity: 0.2;"></path><path class="line" fill="none" stroke="#234099" d="M352.8,240L271.87641692351554,256.73003419357565L302.7143480391196,330.8574187946597L240,240L154.91590840106971,464.3483114478079L240,240L30.276567435972765,291.69218348611247L240,240L63.302380759608866,83.45956920217299L169.36270650112687,53.7447644570654L264.0109067068604,42.252392279667646L376.3355392154772,42.48387218552233L314.3783061548696,200.96325354832345L352.8,240" style="opacity: 0.2;"></path><path class="line" fill="none" stroke="#234099" d="M357.6,240L301.6277393854634,272.34473277424627L306.80441421558396,336.782902629094L260.2501622828943,406.77509084847304L154.91590840106971,464.3483114478079L150.17871021946786,319.5747189888954L100.18437829064851,274.4614556574083L219.02765674359728,234.83078165138875L63.302380759608866,83.45956920217299L211.91529294623115,165.94671357931514L244.91789655441718,199.49747793679938L240,240L373.88095107876535,169.7338563869822L357.6,240" style="opacity: 0.2;"></path><path class="line" fill="none" stroke="#E3E01E" d="M360,240L422.75812369482253,335.91886270983383L306.80441421558396,336.782902629094L251.28223327189824,332.91755061557785L154.91590840106971,464.3483114478079L150.17871021946786,319.5747189888954L100.18437829064851,274.4614556574083L170.09218914532426,222.76927217129585L63.302380759608866,83.45956920217299L211.91529294623115,165.94671357931514L244.91789655441718,199.49747793679938L240,240L352.6300064630883,180.88721251603266L360,240" style="opacity: 0.2;"></path><path class="line" fill="none" stroke="#E3E01E" d="M362.4,240L388.75661230973924,318.0734929033531L309.5311249998935,340.73322518538356L261.4073144133454,416.3050960398144L154.91590840106971,464.3483114478079L150.17871021946786,319.5747189888954L93.19359720518094,276.1845284402787L88.53307648153586,202.66675637114105L63.302380759608866,83.45956920217299L154.89482710979138,15.596101755500456L249.5465050762216,161.37745717143412L240,240L280.3767947697864,218.80862335480415L362.4,240" style="opacity: 0.2;"></path><path class="line" fill="none" stroke="#234099" d="M367.2,240L244.2501889231354,242.23067122581008L302.7143480391196,330.8574187946597L262.56446654379647,425.8351012311557L154.91590840106971,464.3483114478079L240,240L30.276567435972765,291.69218348611247L188.73427203990445,227.36413292561696L63.302380759608866,83.45956920217299L169.36270650112687,53.7447644570654L264.0109067068604,42.252392279667646L376.3355392154772,42.48387218552233L350.5049120015206,182.0025481289377L367.2,240" style="opacity: 0.2;"></path><path class="line" fill="none" stroke="#234099" d="M369.6,240L248.50037784627082,244.46134245162017L302.7143480391196,330.8574187946597L246.36433671748105,292.41502855237724L154.91590840106971,464.3483114478079L240,240L30.276567435972765,291.69218348611247L67.56073322513316,197.4975380225298L63.302380759608866,83.45956920217299L169.36270650112687,53.7447644570654L264.0109067068604,42.252392279667646L376.3355392154772,42.48387218552233L288.8771726160572,214.347280903184L369.6,240" style="opacity: 0.2;"></path><path class="line" fill="none" stroke="#234099" d="M372,240L286.7520781544895,264.53738348391096L313.6211911763578,346.6587090198179L240,240L154.91590840106971,464.3483114478079L150.17871021946786,319.5747189888954L69.89099358695569,281.9281043831801L240,240L63.302380759608866,83.45956920217299L169.36270650112687,53.7447644570654L264.0109067068604,42.252392279667646L376.3355392154772,42.48387218552233L295.25245600076033,211.00127406446884L372,240" style="opacity: 0.2;"></path><path class="line" fill="none" stroke="#234099" d="M374.4,240L263.37603907724474,252.26869174195548L313.6211911763578,346.6587090198179L243.7607444239661,270.9725168718593L154.91590840106971,464.3483114478079L150.17871021946786,319.5747189888954L69.89099358695569,281.9281043831801L209.70661529630718,232.5333512742282L63.302380759608866,83.45956920217299L169.36270650112687,53.7447644570654L264.0109067068604,42.252392279667646L376.3355392154772,42.48387218552233L337.75434523211436,188.69456180636797L374.4,240" style="opacity: 0.2;"></path><path class="line" fill="none" stroke="#E3E01E" d="M379.2,240L397.25699015601003,322.53483535497327L316.34790196066734,350.60903157610744L251.28223327189824,332.91755061557785L154.91590840106971,464.3483114478079L195.08935510973393,279.78735949444774L6.973963817747517,297.43575942901384L170.09218914532426,222.76927217129585L63.302380759608866,83.45956920217299L197.4474135548957,127.79805087775023L254.46440163063878,120.87493510823353L240,240L288.8771726160572,214.347280903184L379.2,240" style="opacity: 0.2;"></path><path class="line" fill="none" stroke="#234099" d="M381.6,240L303.7528338470311,273.46006838715135L313.6211911763578,346.6587090198179L264.01090670686034,437.7476077203323L154.91590840106971,464.3483114478079L150.17871021946786,319.5747189888954L69.89099358695569,281.9281043831801L37.26734852144031,190.030889296758L63.302380759608866,83.45956920217299L169.36270650112687,53.7447644570654L264.0109067068604,42.252392279667646L376.3355392154772,42.48387218552233L280.3767947697864,218.80862335480415L381.6,240" style="opacity: 0.2;"></path><path class="line" fill="none" stroke="#E3E01E" d="M384,240L339.87943969368206,292.4207738065371L299.98763725481007,326.9070962383701L248.67864097838327,311.4750389350599L154.91590840106971,464.3483114478079L240,240L37.26734852144034,289.96911070324205L27.946307074150212,187.73345891959744L63.302380759608866,83.45956920217299L182.97953416356023,89.64938817618531L259.38229818505596,80.37241304503291L240,240L250.62547230783852,234.42332193547477L384,240" style="opacity: 0.2;"></path><path class="line" fill="none" stroke="#234099" d="M388.8,240L271.87641692351554,256.73003419357565L320.4379681371317,356.53451541054176L240,240L154.91590840106971,464.3483114478079L195.08935510973393,279.78735949444774L233.00921891453243,241.72307278287042L240,240L63.302380759608866,83.45956920217299L154.89482710979138,15.596101755500456L249.5465050762216,161.37745717143412L240,240L288.8771726160572,214.347280903184L388.8,240" style="opacity: 0.2;"></path><path class="line" fill="none" stroke="#E3E01E" d="M391.2,240L365.3805732324945,305.8048011613976L320.4379681371317,356.53451541054176L265.16805883731143,447.2776129116737L154.91590840106971,464.3483114478079L195.08935510973393,279.78735949444774L233.00921891453243,241.72307278287042L200.38557384901708,230.23592089706764L63.302380759608866,83.45956920217299L154.89482710979138,15.596101755500456L249.5465050762216,161.37745717143412L240,240L320.7535895395728,197.6172467096083L391.2,240" style="opacity: 0.2;"></path><path class="line" fill="none" stroke="#234099" d="M393.6,240L316.5034006164373,280.1520820645816L320.4379681371317,356.53451541054176L258.8037221198304,394.8625843592964L154.91590840106971,464.3483114478079L195.08935510973393,279.78735949444774L233.00921891453243,241.72307278287042L76.88177467242323,199.79496839969033L63.302380759608866,83.45956920217299L154.89482710979138,15.596101755500456L249.5465050762216,161.37745717143412L240,240L293.1273615391926,212.1166096773739L393.6,240" style="opacity: 0.2;"></path><path class="line" fill="none" stroke="#E3E01E" d="M396,240L369.6307621556299,308.03547238720773L324.528034313596,362.4599992449761L256.48941785892816,375.80257397661376L154.91590840106971,464.3483114478079L150.17871021946786,319.5747189888954L53.579171054198014,285.9486075432111L158.44088733621163,219.89748419984517L63.302380759608866,83.45956920217299L225.53212060866454,201.85133729843508L240,240L240,240L310.1281172317342,203.19392477413356L396,240" style="opacity: 0.2;"></path><path class="line" fill="none" stroke="#234099" d="M400.8,240L271.87641692351554,256.73003419357565L327.2547450979055,366.4103218012656L240,240L154.91590840106971,464.3483114478079L195.08935510973393,279.78735949444774L209.70661529630718,247.4666487257718L240,240L63.302380759608866,83.45956920217299L169.36270650112687,53.7447644570654L264.0109067068604,42.252392279667646L376.3355392154772,42.48387218552233L301.6277393854634,207.65526722575373L400.8,240" style="opacity: 0.2;"></path><path class="line" fill="none" stroke="#234099" d="M403.20000000000005,240L246.37528338470312,243.34600683871514L327.2547450979055,366.4103218012656L265.16805883731143,447.2776129116737L154.91590840106971,464.3483114478079L195.08935510973393,279.78735949444774L209.70661529630718,247.4666487257718L200.38557384901708,230.23592089706764L63.302380759608866,83.45956920217299L169.36270650112687,53.7447644570654L264.0109067068604,42.252392279667646L376.3355392154772,42.48387218552233L314.3783061548696,200.96325354832345L403.20000000000005,240" style="opacity: 0.2;"></path><path class="line" fill="none" stroke="#234099" d="M405.6,240L259.12585015410934,250.0380205161454L327.2547450979055,366.4103218012656L244.91789655441718,280.5025220632006L154.91590840106971,464.3483114478079L195.08935510973393,279.78735949444774L209.70661529630718,247.4666487257718L97.85411792882596,204.9641867483016L63.302380759608866,83.45956920217299L169.36270650112687,53.7447644570654L264.0109067068604,42.252392279667646L376.3355392154772,42.48387218552233L288.8771726160572,214.347280903184L405.6,240" style="opacity: 0.2;"></path><path class="line" fill="none" stroke="#234099" d="M410.4,240L242.1250944615677,241.11533561290506L331.3448112743699,372.33580563569996L262.56446654379647,425.8351012311557L154.91590840106971,464.3483114478079L195.08935510973393,279.78735949444774L240,240L188.73427203990445,227.36413292561696L63.302380759608866,83.45956920217299L211.91529294623115,165.94671357931514L244.91789655441718,199.49747793679938L240,240L286.7520781544895,215.46261651608904L410.4,240" style="opacity: 0.2;"></path><path class="line" fill="none" stroke="#234099" d="M412.79999999999995,240L295.2524560007603,268.9987259355312L334.0715220586794,376.2861281919895L240,240L154.91590840106971,464.3483114478079L105.26806532920179,359.3620784833431L233.00921891453243,241.72307278287042L240,240L63.302380759608866,83.45956920217299L225.53212060866454,201.85133729843508L240,240L240,240L293.1273615391926,212.1166096773739L412.79999999999995,240" style="opacity: 0.2;"></path><path class="line" fill="none" stroke="#E3E01E" d="M415.2,240L435.5086904642287,342.61087638726406L334.0715220586794,376.2861281919895L256.48941785892816,375.80257397661376L154.91590840106971,464.3483114478079L105.26806532920179,359.3620784833431L233.00921891453243,241.72307278287042L158.44088733621163,219.89748419984517L63.302380759608866,83.45956920217299L225.53212060866454,201.85133729843508L240,240L240,240L286.7520781544895,215.46261651608904L415.2,240" style="opacity: 0.2;"></path><path class="line" fill="none" stroke="#E3E01E" d="M417.6,240L393.00680123287464,320.30416412916315L320.4379681371317,356.53451541054176L266.32521096776253,456.807618103015L154.91590840106971,464.3483114478079L195.08935510973393,279.78735949444774L233.00921891453243,241.72307278287042L139.79880444163143,215.30262344552406L63.302380759608866,83.45956920217299L154.89482710979138,15.596101755500456L249.5465050762216,161.37745717143412L240,240L314.3783061548696,200.96325354832345L417.6,240" style="opacity: 0.2;"></path><path class="line" fill="none" stroke="#E3E01E" d="M422.4,240L420.63302923325483,334.80352709692875L334.0715220586794,376.2861281919895L257.64656998937926,385.33257916795515L154.91590840106971,464.3483114478079L105.26806532920179,359.3620784833431L233.00921891453243,241.72307278287042L107.17515937611608,207.26161712546215L63.302380759608866,83.45956920217299L225.53212060866454,201.85133729843508L240,240L240,240L308.0030227701665,204.3092603870386L422.4,240" style="opacity: 0.2;"></path><path class="line" fill="none" stroke="#234099" d="M424.8,240L246.37528338470312,243.34600683871514L331.3448112743699,372.33580563569996L261.4073144133454,416.3050960398144L154.91590840106971,464.3483114478079L195.08935510973393,279.78735949444774L240,240L88.53307648153586,202.66675637114105L63.302380759608866,83.45956920217299L211.91529294623115,165.94671357931514L244.91789655441718,199.49747793679938L240,240L327.12887292427587,194.2712398708932L424.8,240" style="opacity: 0.2;"></path><path class="line" fill="none" stroke="#234099" d="M427.20000000000005,240L278.2517003082187,260.0760410322908L338.16158823514377,382.21161202642384L267.7716511308264,468.7201245921916L154.91590840106971,464.3483114478079L105.26806532920179,359.3620784833431L223.68817746724233,244.02050316003096L58.239691777843035,195.20010764536923L63.302380759608866,83.45956920217299L211.91529294623115,165.94671357931514L244.91789655441718,199.49747793679938L240,240L278.2517003082187,219.9239589677092L427.20000000000005,240" style="opacity: 0.2;"></path><path class="line" fill="none" stroke="#E3E01E" d="M429.6,240L437.6337849257965,343.72621200016914L340.88829901945326,386.16193458271334L256.48941785892816,375.80257397661376L154.91590840106971,464.3483114478079L105.26806532920179,359.3620784833431L209.70661529630718,247.4666487257718L158.44088733621163,219.89748419984517L63.302380759608866,83.45956920217299L197.4474135548957,127.79805087775023L254.46440163063878,120.87493510823353L240,240L257.00075569254165,231.07731509675966L429.6,240" style="opacity: 0.2;"></path><path class="line" fill="none" stroke="#234099" d="M434.4,240L276.126605846651,258.96070541938576L344.9783651959176,392.0874184171477L243.7607444239661,270.9725168718593L154.91590840106971,464.3483114478079L105.26806532920179,359.3620784833431L240,240L209.70661529630718,232.5333512742282L63.302380759608866,83.45956920217299L240,240L268.92880326127755,1.749870216467059L376.3355392154772,42.48387218552233L280.3767947697864,218.80862335480415L434.4,240" style="opacity: 0.2;"></path><path class="line" fill="none" stroke="#234099" d="M436.79999999999995,240L288.8771726160572,265.65271909681604L344.9783651959176,392.0874184171477L253.8858255654132,354.3600622960958L154.91590840106971,464.3483114478079L105.26806532920179,359.3620784833431L240,240L149.11984588892153,217.60005382268463L63.302380759608866,83.45956920217299L240,240L268.92880326127755,1.749870216467059L376.3355392154772,42.48387218552233L308.0030227701665,204.3092603870386L436.79999999999995,240" style="opacity: 0.2;"></path><path class="line" fill="none" stroke="#234099" d="M439.2,240L288.8771726160572,265.65271909681604L334.0715220586794,376.2861281919895L268.9288032612775,478.25012978353294L154.91590840106971,464.3483114478079L105.26806532920179,359.3620784833431L233.00921891453243,241.72307278287042L6.973963817747489,182.56424057098621L63.302380759608866,83.45956920217299L225.53212060866454,201.85133729843508L240,240L240,240L269.75132246194784,224.38530141932938L439.2,240" style="opacity: 0.2;"></path><path class="line" fill="none" stroke="#E3E01E" d="M444,240L439.7588793873641,344.84154761307417L334.0715220586794,376.2861281919895L255.04297769586432,363.89006748743714L154.91590840106971,464.3483114478079L105.26806532920179,359.3620784833431L233.00921891453243,241.72307278287042L46.58838996873044,192.32831967391854L63.302380759608866,83.45956920217299L225.53212060866454,201.85133729843508L240,240L240,240L250.62547230783852,234.42332193547477L444,240" style="opacity: 0.2;"></path><path class="line" fill="none" stroke="#234099" d="M446.4,240L240,240L347.7050759802272,396.0377409734373L265.16805883731143,447.2776129116737L154.91590840106971,464.3483114478079L240,240L23.285786350505163,293.4152562689829L200.38557384901708,230.23592089706764L63.302380759608866,83.45956920217299L240,240L268.92880326127755,1.749870216467059L376.3355392154772,42.48387218552233L254.87566123097392,232.1926507096647L446.4,240" style="opacity: 0.2;"></path><path class="line" fill="none" stroke="#234099" d="M448.8,240L248.50037784627082,244.46134245162017L347.7050759802272,396.0377409734373L246.36433671748105,292.41502855237724L154.91590840106971,464.3483114478079L240,240L23.285786350505163,293.4152562689829L67.56073322513316,197.4975380225298L63.302380759608866,83.45956920217299L240,240L268.92880326127755,1.749870216467059L376.3355392154772,42.48387218552233L244.2501889231354,237.76932877418992L448.8,240" style="opacity: 0.2;"></path><path class="line" fill="none" stroke="#234099" d="M451.2,240L274.0015113850833,257.84536980648073L351.79514215669144,401.9632248078716L240,240L154.91590840106971,464.3483114478079L240,240L13.96474490321512,295.7126866461434L240,240L63.302380759608866,83.45956920217299L225.53212060866454,201.85133729843508L240,240L240,240L246.37528338470312,236.65399316128486L451.2,240" style="opacity: 0.2;"></path><path class="line" fill="none" stroke="#E3E01E" d="M456,240L390.88170677130694,319.1888285162581L351.79514215669144,401.9632248078716L251.28223327189824,332.91755061557785L154.91590840106971,464.3483114478079L240,240L13.96474490321512,295.7126866461434L170.09218914532426,222.76927217129585L63.302380759608866,83.45956920217299L225.53212060866454,201.85133729843508L240,240L240,240L244.2501889231354,237.76932877418992L456,240" style="opacity: 0.2;"></path><path class="line" fill="none" stroke="#234099" d="M458.4,240L288.8771726160572,265.65271909681604L355.8852083331558,407.8887086423059L253.8858255654132,354.3600622960958L154.91590840106971,464.3483114478079L60.35742043893572,399.14943797779085L139.79880444163143,264.69737655447597L149.11984588892153,217.60005382268463L63.302380759608866,83.45956920217299L211.91529294623115,165.94671357931514L244.91789655441718,199.49747793679938L240,240L280.3767947697864,218.80862335480415L458.4,240" style="opacity: 0.2;"></path><path class="line" fill="none" stroke="#234099" d="M460.8,240L299.50264492389573,271.22939716134124L358.6119191174654,411.8390311985954L256.48941785892816,375.80257397661376L154.91590840106971,464.3483114478079L60.35742043893572,399.14943797779085L116.49620082340618,270.44095249737734L158.44088733621163,219.89748419984517L63.302380759608866,83.45956920217299L182.97953416356023,89.64938817618531L259.38229818505596,80.37241304503291L240,240L248.50037784627082,235.53865754837983L460.8,240" style="opacity: 0.2;"></path><path class="line" fill="none" stroke="#E3E01E" d="M465.6,240L403.6322735407132,325.8808421936884L362.7019852939297,417.76451503302974L241.1571521304511,249.53000519134133L154.91590840106971,464.3483114478079L60.35742043893572,399.14943797779085L60.56995213966559,284.2255347603407L128.1475026325188,212.43083547407338L63.302380759608866,83.45956920217299L182.97953416356023,89.64938817618531L259.38229818505596,80.37241304503291L240,240L271.87641692351554,223.26996580642435L465.6,240" style="opacity: 0.2;"></path><path class="line" fill="none" stroke="#234099" d="M468,240L278.2517003082187,260.0760410322908L365.4286960782392,421.71483758931936L242.60359229351496,261.44251168051795L154.91590840106971,464.3483114478079L195.08935510973393,279.78735949444774L163.10140805985668,258.9538006115746L16.295005265037616,184.86167094814675L63.302380759608866,83.45956920217299L182.97953416356023,89.64938817618531L259.38229818505596,80.37241304503291L240,240L254.87566123097392,232.1926507096647L468,240" style="opacity: 0.2;"></path><path class="line" fill="none" stroke="#E3E01E" d="M470.4,240L356.8801953862237,301.34345870977745L369.5187622547036,427.6403214237537L252.43938540234933,342.4475558069192L154.91590840106971,464.3483114478079L60.35742043893572,399.14943797779085L37.26734852144034,289.96911070324205L179.41323059261435,225.06670254845642L63.302380759608866,83.45956920217299L225.53212060866454,201.85133729843508L240,240L240,240L257.00075569254165,231.07731509675966L470.4,240" style="opacity: 0.2;"></path><path class="line" fill="none" stroke="#234099" d="M472.79999999999995,240L284.6269836929218,263.42204787100593L369.5187622547036,427.6403214237537L242.60359229351496,261.44251168051795L154.91590840106971,464.3483114478079L60.35742043893572,399.14943797779085L37.26734852144034,289.96911070324205L16.295005265037616,184.86167094814675L63.302380759608866,83.45956920217299L225.53212060866454,201.85133729843508L240,240L240,240L250.62547230783852,234.42332193547477L472.79999999999995,240" style="opacity: 0.2;"></path><path class="line" fill="none" stroke="#234099" d="M477.6,240L288.8771726160572,265.65271909681604L372.24547303901306,431.5906439800432L246.36433671748105,292.41502855237724L154.91590840106971,464.3483114478079L60.35742043893572,399.14943797779085L13.96474490321512,295.7126866461434L67.56073322513316,197.4975380225298L63.302380759608866,83.45956920217299L197.4474135548957,127.79805087775023L254.46440163063878,120.87493510823353L240,240L250.62547230783852,234.42332193547477L477.6,240" style="opacity: 0.2;"></path><path class="line" fill="none" stroke="#234099" d="M480,240L297.37755046232803,270.1140615484362L376.3355392154774,437.5161278144775L240,240L154.91590840106971,464.3483114478079L60.35742043893572,399.14943797779085L6.973963817747517,297.43575942901384L240,240L63.302380759608866,83.45956920217299L182.97953416356023,89.64938817618531L259.38229818505596,80.37241304503291L240,240L240,240L480,240" style="opacity: 0.2;"></path></g></g><g class="legend" style="width: 124px; height: 72px; transform: translate(860px, 24px);"><rect style="fill: white; stroke: rgb(0, 0, 0); width: 124px; height: 90px; transform: translate(0px, 0px);"></rect><text style="fill: rgb(0, 0, 0); transform: translate(12px, 12px);">Cluster legend:</text><g class="cluster-label" style="width: 88px; height: 18px; transform: translate(12px, 18px);"><rect class="color-tag" style="height: 3px; width: 18px; transform: translate(0px, 7px); fill: rgb(35, 64, 153);"></rect><text class="cluster-name" style="fill: rgba(0, 0, 0, 0.95); height: 18px; line-height: 18px; font-size: 12px; transform: translate(23px, 12px);">Cluster 0</text></g><g class="cluster-label" style="width: 88px; height: 18px; transform: translate(12px, 36px);"><rect class="color-tag" style="height: 3px; width: 18px; transform: translate(0px, 7px); fill: rgb(227, 224, 30);"></rect><text class="cluster-name" style="fill: rgba(0, 0, 0, 0.95); height: 18px; line-height: 18px; font-size: 12px; transform: translate(23px, 12px);">Cluster 1</text></g><g class="cluster-label" style="width: 88px; height: 18px; transform: translate(12px, 54px);"><rect class="color-tag" style="height: 3px; width: 18px; transform: translate(0px, 7px); fill: rgb(255, 77, 0);"></rect><text class="cluster-name" style="fill: rgba(0, 0, 0, 0.95); height: 18px; line-height: 18px; font-size: 12px; transform: translate(23px, 12px);">Outliers</text></g></g></svg>