<?xml version="1.0" standalone="no"?>
<svg class="transformations" height="640" width="726.6666666666666" xmlns="http://www.w3.org/2000/svg" style="overflow: visible;"><defs><marker id="TransformArrow" viewBox="0 -5 10 10" refX="5" refY="0" markerWidth="4" markerHeight="4" orient="auto"><path class="marker" d="M0,-5L10,0L0,5" fill="#234099" stroke="none"></path></marker></defs><g height="312" width="260" transform="translate(60, 164)" class="plot" style="font-family: Rajdhani, sans-serif;"><g><rect class="bar" transform="translate(0, 272.7052896725441)" x="0" width="16.25" height="39.2947103274559" fill="#234099"></rect><rect class="bar" transform="translate(16.25, 205.51133501259443)" x="0" width="16.25" height="106.48866498740557" fill="#234099"></rect><rect class="bar" transform="translate(32.5, 101.77329974811084)" x="0" width="16.25" height="210.22670025188916" fill="#234099"></rect><rect class="bar" transform="translate(48.75, 0)" x="0" width="16.25" height="312" fill="#234099"></rect><rect class="bar" transform="translate(65, 201.1889168765743)" x="0" width="16.25" height="110.8110831234257" fill="#234099"></rect><rect class="bar" transform="translate(81.25, 205.51133501259443)" x="0" width="16.25" height="106.48866498740557" fill="#234099"></rect><rect class="bar" transform="translate(97.5, 247.16372795969772)" x="0" width="16.25" height="64.83627204030228" fill="#234099"></rect><rect class="bar" transform="translate(113.75, 232.62468513853904)" x="0" width="16.25" height="79.37531486146096" fill="#234099"></rect><rect class="bar" transform="translate(130, 224.37279596977328)" x="0" width="16.25" height="87.62720403022672" fill="#234099"></rect><rect class="bar" transform="translate(146.25, 216.12090680100755)" x="0" width="16.25" height="95.87909319899245" fill="#234099"></rect><rect class="bar" transform="translate(162.5, 237.73299748110833)" x="0" width="16.25" height="74.26700251889167" fill="#234099"></rect><rect class="bar" transform="translate(178.75, 229.48110831234257)" x="0" width="16.25" height="82.51889168765743" fill="#234099"></rect><rect class="bar" transform="translate(195, 273.4911838790932)" x="0" width="16.25" height="38.50881612090677" fill="#234099"></rect><rect class="bar" transform="translate(211.25, 292.352644836272)" x="0" width="16.25" height="19.64735516372798" fill="#234099"></rect><rect class="bar" transform="translate(227.5, 302.176322418136)" x="0" width="16.25" height="9.82367758186399" fill="#234099"></rect><rect class="bar" transform="translate(243.75, 306.89168765743074)" x="0" width="16.25" height="5.108312342569263" fill="#234099"></rect></g><g class="axis" transform="translate(0, 312)" fill="none" font-size="10" font-family="sans-serif" text-anchor="middle"><path class="domain" stroke="#000" d="M0.5,6V0.5H260.5V6"></path></g></g><g height="312" width="260" transform="translate(406.6666666666667, 164)" class="plot" style="font-family: Rajdhani, sans-serif;"><g><rect class="bar" transform="translate(0, 0)" x="0" width="14.444444444444443" height="312" fill="#234099"></rect><rect class="bar" transform="translate(14.444444444444445, 270.83824959481365)" x="0" width="14.444444444444443" height="41.16175040518635" fill="#234099"></rect><rect class="bar" transform="translate(28.88888888888889, 300.3695299837925)" x="0" width="14.444444444444443" height="11.630470016207482" fill="#234099"></rect><rect class="bar" transform="translate(43.33333333333333, 309.4716369529984)" x="0" width="14.444444444444443" height="2.528363047001619" fill="#234099"></rect><rect class="bar" transform="translate(57.77777777777778, 309.87617504051866)" x="0" width="14.444444444444443" height="2.1238249594813396" fill="#234099"></rect><rect class="bar" transform="translate(72.22222222222223, 312)" x="0" width="14.444444444444443" height="0" fill="#234099"></rect><rect class="bar" transform="translate(86.66666666666666, 311.29205834683955)" x="0" width="14.444444444444443" height="0.7079416531604465" fill="#234099"></rect><rect class="bar" transform="translate(101.11111111111111, 312)" x="0" width="14.444444444444443" height="0" fill="#234099"></rect><rect class="bar" transform="translate(115.55555555555554, 312)" x="0" width="14.444444444444443" height="0" fill="#234099"></rect><rect class="bar" transform="translate(129.99999999999997, 312)" x="0" width="14.444444444444443" height="0" fill="#234099"></rect><rect class="bar" transform="translate(144.44444444444443, 312)" x="0" width="14.444444444444443" height="0" fill="#234099"></rect><rect class="bar" transform="translate(158.88888888888889, 312)" x="0" width="14.444444444444443" height="0" fill="#234099"></rect><rect class="bar" transform="translate(173.33333333333331, 312)" x="0" width="14.444444444444443" height="0" fill="#234099"></rect><rect class="bar" transform="translate(187.77777777777777, 312)" x="0" width="14.444444444444443" height="0" fill="#234099"></rect><rect class="bar" transform="translate(202.22222222222226, 312)" x="0" width="14.444444444444443" height="0" fill="#234099"></rect><rect class="bar" transform="translate(216.6666666666667, 310.7863857374392)" x="0" width="14.444444444444443" height="1.2136142625607818" fill="#234099"></rect><rect class="bar" transform="translate(231.11111111111114, 312)" x="0" width="14.444444444444443" height="0" fill="#234099"></rect><rect class="bar" transform="translate(245.5555555555556, 312)" x="0" width="14.444444444444443" height="0" fill="#234099"></rect></g><g class="axis" transform="translate(0, 312)" fill="none" font-size="10" font-family="sans-serif" text-anchor="middle"><path class="domain" stroke="#000" d="M0.5,6V0.5H260.5V6"></path></g></g><text x="50%" y="532" text-anchor="middle" style="font-size: 18px;">"inverse" transformation of electric_power</text><line class="transform-arrow" marker-end="url(#TransformArrow)" x1="341.6666666666667" x2="385" y1="320" y2="320" fill="none" stroke="#234099" stroke-width="10"></line></svg>