<?xml version="1.0" standalone="no"?>
<svg class="histogram" height="661.90625" width="640" xmlns="http://www.w3.org/2000/svg" style="overflow: visible;"><g transform="translate(60, 60)" class="plot" style="font-family: Rajdhani, sans-serif;"><g><rect class="bar" transform="translate(0, 454.5088161209068)" x="0" width="32.5" height="65.49118387909323" fill="#234099"></rect><rect class="bar" transform="translate(32.5, 342.5188916876574)" x="0" width="32.5" height="177.4811083123426" fill="#234099"></rect><rect class="bar" transform="translate(65, 169.6221662468514)" x="0" width="32.5" height="350.3778337531486" fill="#234099"></rect><rect class="bar" transform="translate(97.5, 0)" x="0" width="32.5" height="520" fill="#234099"></rect><rect class="bar" transform="translate(130, 335.31486146095716)" x="0" width="32.5" height="184.68513853904284" fill="#234099"></rect><rect class="bar" transform="translate(162.5, 342.5188916876574)" x="0" width="32.5" height="177.4811083123426" fill="#234099"></rect><rect class="bar" transform="translate(195, 411.9395465994962)" x="0" width="32.5" height="108.06045340050377" fill="#234099"></rect><rect class="bar" transform="translate(227.5, 387.70780856423175)" x="0" width="32.5" height="132.29219143576825" fill="#234099"></rect><rect class="bar" transform="translate(260, 373.95465994962217)" x="0" width="32.5" height="146.04534005037783" fill="#234099"></rect><rect class="bar" transform="translate(292.5, 360.2015113350126)" x="0" width="32.5" height="159.79848866498742" fill="#234099"></rect><rect class="bar" transform="translate(325, 396.22166246851384)" x="0" width="32.5" height="123.77833753148616" fill="#234099"></rect><rect class="bar" transform="translate(357.5, 382.46851385390426)" x="0" width="32.5" height="137.53148614609574" fill="#234099"></rect><rect class="bar" transform="translate(390, 455.8186397984887)" x="0" width="32.5" height="64.18136020151132" fill="#234099"></rect><rect class="bar" transform="translate(422.5, 487.2544080604534)" x="0" width="32.5" height="32.745591939546614" fill="#234099"></rect><rect class="bar" transform="translate(455, 503.6272040302267)" x="0" width="32.5" height="16.37279596977328" fill="#234099"></rect><rect class="bar" transform="translate(487.5, 511.4861460957179)" x="0" width="32.5" height="8.513853904282087" fill="#234099"></rect></g><g class="axis" transform="translate(0, 520)" fill="none" font-size="10" font-family="sans-serif" text-anchor="middle"><path class="domain" stroke="#000" d="M0.5,6V0.5H520.5V6"></path><g class="tick" opacity="1" transform="translate(0.5,0)"><line stroke="#000" y2="6"></line><text fill="#000" y="9" dy="-.45em" text-anchor="start" dx=".8em" transform="rotate(90)">0.0</text></g><g class="tick" opacity="1" transform="translate(0.5,0)"><line stroke="#000" y2="6"></line><text fill="#000" y="9" dy="-.45em" text-anchor="start" dx=".8em" transform="rotate(90)">0.0</text></g><g class="tick" opacity="1" transform="translate(260.5,0)"><line stroke="#000" y2="6"></line><text fill="#000" y="9" dy="-.45em" text-anchor="start" dx=".8em" transform="rotate(90)">0.5</text></g><g class="tick" opacity="1" transform="translate(520.5,0)"><line stroke="#000" y2="6"></line><text fill="#000" y="9" dy="-.45em" text-anchor="start" dx=".8em" transform="rotate(90)">1.0</text></g></g><text transform="translate(260, 565.90625)" style="text-anchor: middle;">electric_power</text></g></svg>