<?xml version="1.0" standalone="no"?>
<svg class="boxplot" height="800.8125" width="763.40625" xmlns="http://www.w3.org/2000/svg" style="overflow: visible; margin-top: -60.8125px;"><g transform="translate(83.40625, 120.8125)" class="plot" style="font-family: Rajdhani, sans-serif;"><line y1="0" y2="452.4" x1="37.142857142857146" x2="37.142857142857146" stroke="#234099" stroke-width="1" fill="#FFF"></line><rect width="24.761904761904763" height="202.79999999999995" x="24.761904761904766" y="197.60000000000002" stroke="#234099" fill="#FFF"></rect><line stroke="#234099" stroke-width="1" x1="24.761904761904766" x2="49.523809523809526" y1="286" y2="286"></line><line y1="5.2000000000000455" y2="499.2" x1="111.42857142857144" x2="111.42857142857144" stroke="#234099" stroke-width="1" fill="#FFF"></line><rect width="24.761904761904763" height="223.60000000000002" x="99.04761904761907" y="192.39999999999998" stroke="#234099" fill="#FFF"></rect><line stroke="#234099" stroke-width="1" x1="99.04761904761907" x2="123.80952380952382" y1="312" y2="312"></line><line y1="306.8" y2="499.2" x1="185.71428571428572" x2="185.71428571428572" stroke="#234099" stroke-width="1" fill="#FFF"></line><rect width="24.761904761904763" height="57.19999999999999" x="173.33333333333334" y="390" stroke="#234099" fill="#FFF"></rect><line stroke="#234099" stroke-width="1" x1="173.33333333333334" x2="198.0952380952381" y1="416" y2="416"></line><circle cx="185.71428571428572" cy="232.29370597569812" r="2" fill="#234099" opacity="0.5"></circle><circle cx="185.71428571428572" cy="266.0160354042187" r="2" fill="#234099" opacity="0.5"></circle><circle cx="185.71428571428572" cy="269.74548138896205" r="2" fill="#234099" opacity="0.5"></circle><line y1="296.4" y2="514.8" x1="260.00000000000006" x2="260.00000000000006" stroke="#234099" stroke-width="1" fill="#FFF"></line><rect width="24.761904761904763" height="67.60000000000002" x="247.61904761904765" y="390" stroke="#234099" fill="#FFF"></rect><line stroke="#234099" stroke-width="1" x1="247.61904761904765" x2="272.3809523809524" y1="410.8" y2="410.8"></line><circle cx="260.00000000000006" cy="231.0026787621319" r="2" fill="#234099" opacity="0.5"></circle><circle cx="260.00000000000006" cy="266.96119192976255" r="2" fill="#234099" opacity="0.5"></circle><circle cx="260.00000000000006" cy="273.1693552621963" r="2" fill="#234099" opacity="0.5"></circle><line y1="5.2000000000000455" y2="494" x1="334.28571428571433" x2="334.28571428571433" stroke="#234099" stroke-width="1" fill="#FFF"></line><rect width="24.761904761904763" height="218.40000000000003" x="321.9047619047619" y="192.39999999999998" stroke="#234099" fill="#FFF"></rect><line stroke="#234099" stroke-width="1" x1="321.9047619047619" x2="346.66666666666674" y1="322.4" y2="322.4"></line><line y1="78" y2="509.6" x1="408.5714285714286" x2="408.5714285714286" stroke="#234099" stroke-width="1" fill="#FFF"></line><rect width="24.761904761904763" height="176.79999999999995" x="396.1904761904762" y="218.40000000000003" stroke="#234099" fill="#FFF"></rect><line stroke="#234099" stroke-width="1" x1="396.1904761904762" x2="420.952380952381" y1="317.2" y2="317.2"></line><line y1="0" y2="509.6" x1="482.85714285714295" x2="482.85714285714295" stroke="#234099" stroke-width="1" fill="#FFF"></line><rect width="24.761904761904763" height="218.39999999999998" x="470.47619047619054" y="208" stroke="#234099" fill="#FFF"></rect><line stroke="#234099" stroke-width="1" x1="470.47619047619054" x2="495.23809523809535" y1="353.6" y2="353.6"></line><g class="axis x-axis" transform="translate(0, 520)" fill="none" font-size="10" font-family="sans-serif" text-anchor="middle"><path class="domain" stroke="#000" d="M0.5,6V0.5H520.5V6"></path><g class="tick" opacity="1" transform="translate(37.142857142857146,0)"><line stroke="#000" y2="6"></line><text fill="#000" y="9" dy="-.45em" text-anchor="start" dx=".8em" transform="rotate(90)">Friday</text></g><g class="tick" opacity="1" transform="translate(111.42857142857144,0)"><line stroke="#000" y2="6"></line><text fill="#000" y="9" dy="-.45em" text-anchor="start" dx=".8em" transform="rotate(90)">Monday</text></g><g class="tick" opacity="1" transform="translate(185.71428571428572,0)"><line stroke="#000" y2="6"></line><text fill="#000" y="9" dy="-.45em" text-anchor="start" dx=".8em" transform="rotate(90)">Saturday</text></g><g class="tick" opacity="1" transform="translate(260.00000000000006,0)"><line stroke="#000" y2="6"></line><text fill="#000" y="9" dy="-.45em" text-anchor="start" dx=".8em" transform="rotate(90)">Sunday</text></g><g class="tick" opacity="1" transform="translate(334.28571428571433,0)"><line stroke="#000" y2="6"></line><text fill="#000" y="9" dy="-.45em" text-anchor="start" dx=".8em" transform="rotate(90)">Thursday</text></g><g class="tick" opacity="1" transform="translate(408.5714285714286,0)"><line stroke="#000" y2="6"></line><text fill="#000" y="9" dy="-.45em" text-anchor="start" dx=".8em" transform="rotate(90)">Tuesday</text></g><g class="tick" opacity="1" transform="translate(482.85714285714295,0)"><line stroke="#000" y2="6"></line><text fill="#000" y="9" dy="-.45em" text-anchor="start" dx=".8em" transform="rotate(90)">Wednesday</text></g></g><g class="axis y-axis" fill="none" font-size="10" font-family="sans-serif" text-anchor="end"><path class="domain" stroke="#000" d="M-6,520.5H0.5V0.5H-6"></path><g class="tick" opacity="1" transform="translate(0,520.5)"><line stroke="#000" x2="-6"></line><text fill="#000" x="-9" dy="0.32em">0.0</text></g><g class="tick" opacity="1" transform="translate(0,468.5)"><line stroke="#000" x2="-6"></line><text fill="#000" x="-9" dy="0.32em">0.1</text></g><g class="tick" opacity="1" transform="translate(0,416.5)"><line stroke="#000" x2="-6"></line><text fill="#000" x="-9" dy="0.32em">0.2</text></g><g class="tick" opacity="1" transform="translate(0,364.5)"><line stroke="#000" x2="-6"></line><text fill="#000" x="-9" dy="0.32em">0.3</text></g><g class="tick" opacity="1" transform="translate(0,312.5)"><line stroke="#000" x2="-6"></line><text fill="#000" x="-9" dy="0.32em">0.4</text></g><g class="tick" opacity="1" transform="translate(0,260.5)"><line stroke="#000" x2="-6"></line><text fill="#000" x="-9" dy="0.32em">0.5</text></g><g class="tick" opacity="1" transform="translate(0,208.5)"><line stroke="#000" x2="-6"></line><text fill="#000" x="-9" dy="0.32em">0.6</text></g><g class="tick" opacity="1" transform="translate(0,156.5)"><line stroke="#000" x2="-6"></line><text fill="#000" x="-9" dy="0.32em">0.7</text></g><g class="tick" opacity="1" transform="translate(0,104.5)"><line stroke="#000" x2="-6"></line><text fill="#000" x="-9" dy="0.32em">0.8</text></g><g class="tick" opacity="1" transform="translate(0,52.5)"><line stroke="#000" x2="-6"></line><text fill="#000" x="-9" dy="0.32em">0.9</text></g><g class="tick" opacity="1" transform="translate(0,0.5)"><line stroke="#000" x2="-6"></line><text fill="#000" x="-9" dy="0.32em">1.0</text></g></g><text transform="rotate(-90)" x="-260" y="-35.40625" style="text-anchor: middle;">electric_power</text><text transform="translate(260, 604.8125)" style="text-anchor: middle;">Weekday_Name</text></g></svg>